#N canvas 60 228 621 231 10;
#X obj 35 21 netreceive 3939;
#N canvas 470 89 450 300 synth 0;
#X obj 26 64 osc~;
#X obj 26 41 mtof;
#X obj 26 131 *~;
#X obj 67 103 vline~;
#X msg 67 80 1 30 \, 0 100 50;
#X obj 25 185 dac~;
#X floatatom 94 45 5 0 0 0 - - -;
#X obj 26 159 *~ 0.3;
#X obj 26 20 r \$0-let;
#X connect 0 0 2 0;
#X connect 1 0 0 0;
#X connect 2 0 7 0;
#X connect 3 0 2 1;
#X connect 4 0 3 0;
#X connect 7 0 5 0;
#X connect 7 0 5 1;
#X connect 8 0 1 0;
#X connect 8 0 4 0;
#X connect 8 0 6 0;
#X restore 520 62 pd synth;
#X text 38 1 tune \, letters;
#N canvas 402 88 589 420 punctuation 0;
#X obj 101 67 click~;
#X obj 19 156 dac~;
#X obj 164 41 click~;
#X obj 163 71 dac~;
#X obj 25 96 delwrite~ stopdel 50;
#X obj 19 122 delread~ stopdel 50;
#X obj 59 171 s~ fb;
#X obj 55 144 *~ 0.3;
#X obj 34 57 r~ fb;
#X obj 217 150 osc~;
#X obj 217 108 vline~;
#X obj 228 226 dac~;
#X obj 228 179 *~;
#X obj 276 135 vline~;
#X msg 276 109 1 20 \, 0 100 200;
#X msg 217 83 1000 100 \, 500 200 100;
#X obj 384 155 osc~;
#X obj 384 113 vline~;
#X obj 395 231 dac~;
#X obj 395 184 *~;
#X obj 443 140 vline~;
#X msg 443 114 1 20 \, 0 100 200;
#X msg 385 88 500 100 \, 1000 200 100;
#X obj 163 231 noise~;
#X obj 48 274 *~;
#X obj 53 300 dac~;
#X obj 22 252 vline~;
#X msg 22 226 1 100 \, 0 100 100;
#X obj 163 256 bp~ 1000 2;
#X obj 313 395 dac~;
#X obj 312 372 *~;
#X obj 394 365 vline~;
#X msg 394 345 1 50 \, 0 100 50;
#X obj 410 297 del 100;
#X obj 290 309 noise~;
#X obj 287 335 bp~ 2000 20;
#X obj 207 310 noise~;
#X obj 111 378 *~;
#X obj 116 404 dac~;
#X obj 85 355 vline~;
#X obj 207 335 bp~ 100 2;
#X obj 228 201 *~ 0.4;
#X obj 395 207 *~ 0.3;
#X msg 84 330 2 100 \, 0 100 100;
#X obj 100 43 r \$0-stop;
#X obj 164 17 r \$0-comma;
#X obj 217 44 r \$0-exclaim;
#X obj 384 48 r \$0-question;
#X obj 22 204 r \$0-hash;
#X obj 86 307 r \$0-_;
#X obj 398 269 r \$0-=;
#X connect 0 0 4 0;
#X connect 2 0 3 0;
#X connect 2 0 3 1;
#X connect 5 0 1 0;
#X connect 5 0 1 1;
#X connect 5 0 7 0;
#X connect 7 0 6 0;
#X connect 8 0 4 0;
#X connect 9 0 12 0;
#X connect 10 0 9 0;
#X connect 12 0 41 0;
#X connect 13 0 12 1;
#X connect 14 0 13 0;
#X connect 15 0 10 0;
#X connect 16 0 19 0;
#X connect 17 0 16 0;
#X connect 19 0 42 0;
#X connect 20 0 19 1;
#X connect 21 0 20 0;
#X connect 22 0 17 0;
#X connect 23 0 28 0;
#X connect 24 0 25 0;
#X connect 24 0 25 1;
#X connect 26 0 24 0;
#X connect 27 0 26 0;
#X connect 28 0 24 1;
#X connect 30 0 29 0;
#X connect 30 0 29 1;
#X connect 31 0 30 1;
#X connect 32 0 31 0;
#X connect 33 0 32 0;
#X connect 34 0 35 0;
#X connect 35 0 30 0;
#X connect 36 0 40 0;
#X connect 37 0 38 0;
#X connect 37 0 38 1;
#X connect 39 0 37 0;
#X connect 40 0 37 1;
#X connect 41 0 11 0;
#X connect 41 0 11 1;
#X connect 42 0 18 0;
#X connect 42 0 18 1;
#X connect 43 0 39 0;
#X connect 44 0 0 0;
#X connect 45 0 2 0;
#X connect 46 0 15 0;
#X connect 46 0 14 0;
#X connect 47 0 22 0;
#X connect 47 0 21 0;
#X connect 48 0 27 0;
#X connect 49 0 43 0;
#X connect 50 0 32 0;
#X connect 50 0 33 0;
#X restore 482 2 pd punctuation;
#N canvas 262 88 750 513 brackets 0;
#X obj 65 143 vline~;
#X obj 14 169 *~;
#X obj 13 194 *~ 0.2;
#X msg 65 119 1 100 \, 0 100 200;
#X obj 9 142 osc~;
#X obj 13 216 dac~;
#X obj 10 119 vline~;
#X msg 10 72 440 \, 880 400;
#X msg 21 92 880 \, 440 400;
#X obj 332 129 vline~;
#X obj 209 215 *~;
#X obj 208 240 *~ 0.2;
#X msg 332 105 1 100 \, 0 100 200;
#X obj 208 262 dac~;
#X obj 206 107 vline~;
#X msg 206 60 440 \, 880 400;
#X msg 217 80 880 \, 440 400;
#X obj 556 158 vline~;
#X obj 505 184 *~;
#X obj 504 209 *~ 0.2;
#X msg 556 134 1 100 \, 0 100 200;
#X obj 500 157 osc~;
#X obj 504 231 dac~;
#X obj 501 88 vline~;
#X msg 501 41 440 \, 880 400;
#X msg 512 61 880 \, 440 400;
#X obj 501 135 +~;
#X obj 455 114 *~ 100;
#X obj 454 88 osc~ 5;
#X obj 205 130 osc~;
#X obj 200 162 expr~ $v1 > 0;
#X obj 148 39 r \$0-opb;
#X obj 344 27 r \$0-ops;
#X obj 639 54 r \$0-opc;
#X obj 647 86 r \$0-clc;
#X obj 352 59 r \$0-cls;
#X obj 156 71 r \$0-clb;
#X connect 0 0 1 1;
#X connect 1 0 2 0;
#X connect 2 0 5 0;
#X connect 2 0 5 1;
#X connect 3 0 0 0;
#X connect 4 0 1 0;
#X connect 6 0 4 0;
#X connect 7 0 6 0;
#X connect 8 0 6 0;
#X connect 9 0 10 1;
#X connect 10 0 11 0;
#X connect 11 0 13 0;
#X connect 11 0 13 1;
#X connect 12 0 9 0;
#X connect 14 0 29 0;
#X connect 15 0 14 0;
#X connect 16 0 14 0;
#X connect 17 0 18 1;
#X connect 18 0 19 0;
#X connect 19 0 22 0;
#X connect 19 0 22 1;
#X connect 20 0 17 0;
#X connect 21 0 18 0;
#X connect 23 0 26 1;
#X connect 24 0 23 0;
#X connect 25 0 23 0;
#X connect 26 0 21 0;
#X connect 27 0 26 0;
#X connect 28 0 27 0;
#X connect 29 0 30 0;
#X connect 30 0 10 0;
#X connect 31 0 7 0;
#X connect 31 0 3 0;
#X connect 32 0 15 0;
#X connect 32 0 12 0;
#X connect 33 0 24 0;
#X connect 33 0 20 0;
#X connect 34 0 25 0;
#X connect 34 0 20 0;
#X connect 35 0 16 0;
#X connect 35 0 12 0;
#X connect 36 0 8 0;
#X connect 36 0 3 0;
#X restore 502 42 pd brackets;
#N canvas 472 88 450 300 numbsynth 0;
#X obj 26 41 mtof;
#X obj 27 166 *~;
#X obj 198 113 vline~;
#X obj 26 212 dac~;
#X obj 27 68 phasor~;
#X obj 28 139 moog~;
#X obj 100 58 +~ 1;
#X obj 100 78 *~ 2000;
#X obj 100 99 +~ 300;
#X floatatom 260 59 5 0 0 0 - - -;
#X obj 100 36 osc~ 10;
#X msg 198 88 1 30 \, 0 200 100;
#X obj 27 186 *~ 0.4;
#X obj 26 19 r \$0-num;
#X obj 197 51 r \$0-num;
#X connect 0 0 4 0;
#X connect 1 0 12 0;
#X connect 2 0 1 1;
#X connect 4 0 5 0;
#X connect 5 0 1 0;
#X connect 6 0 7 0;
#X connect 7 0 8 0;
#X connect 8 0 5 1;
#X connect 10 0 6 0;
#X connect 11 0 2 0;
#X connect 12 0 3 0;
#X connect 12 0 3 1;
#X connect 13 0 0 0;
#X connect 14 0 11 0;
#X connect 14 0 9 0;
#X restore 496 84 pd numbsynth;
#N canvas 102 88 860 501 punctuation2 0;
#X obj 24 140 osc~;
#X obj 24 118 line~;
#X obj 69 140 osc~;
#X obj 69 118 line~;
#X obj 66 214 *~;
#X msg 8 63 440 \, 880 100;
#X msg 32 82 440 \, 220 100;
#X obj 65 236 dac~;
#X obj 63 34 bng 15 250 50 0 empty empty empty 17 7 0 10 -262144 -1
-1;
#X obj 119 188 vline~;
#X msg 114 161 1 10 \, 0 200 10;
#X obj 244 136 osc~;
#X obj 244 114 line~;
#X obj 282 136 osc~;
#X obj 282 114 line~;
#X obj 310 195 *~;
#X obj 311 219 dac~;
#X obj 321 27 bng 15 250 50 0 empty empty empty 17 7 0 10 -262144 -1
-1;
#X obj 316 137 vline~;
#X msg 319 114 1 10 \, 0 200 10;
#X msg 233 62 220 \, 440 100;
#X msg 250 85 880 \, 440 100;
#X obj 427 167 osc~;
#X obj 427 145 line~;
#X obj 458 241 *~;
#X obj 459 265 dac~;
#X obj 464 183 vline~;
#X msg 423 110 10000 \, 5000 100;
#X obj 462 57 del 100;
#X msg 467 160 1 10 \, 0 50 10;
#X obj 12 363 osc~;
#X obj 43 437 *~;
#X obj 44 461 dac~;
#X obj 49 379 vline~;
#X obj 150 355 osc~;
#X obj 150 333 line~;
#X obj 181 429 *~;
#X obj 182 453 dac~;
#X obj 187 371 vline~;
#X msg 190 348 1 10 \, 0 300 10;
#X msg 147 298 50 \, 1000 300;
#X obj 288 349 osc~;
#X obj 288 327 line~;
#X obj 319 423 *~;
#X obj 320 447 dac~;
#X obj 325 365 vline~;
#X msg 329 342 1 10 \, 0 300 10;
#X msg 285 292 440 \, 880 1000;
#X obj 717 418 dac~;
#X obj 722 338 vline~;
#X obj 719 398 *~;
#X msg 726 315 1 10 \, 0 400 10;
#X obj 646 314 random 10000;
#X obj 644 340 osc~;
#X obj 471 356 osc~;
#X obj 471 334 line~;
#X obj 502 430 *~;
#X obj 503 454 dac~;
#X obj 508 372 vline~;
#X msg 512 349 1 10 \, 0 300 10;
#X msg 468 299 880 \, 440 1000;
#X obj 66 188 *~ 0.3;
#X obj 312 174 *~ 0.3;
#X obj 461 221 *~ 0.3;
#X obj 45 417 *~ 0.3;
#X msg 9 306 1000;
#X obj 183 408 *~ 0.3;
#X obj 321 402 *~ 0.3;
#X obj 504 408 *~ 0.3;
#X obj 718 375 *~ 0.3;
#X msg 51 358 1 10 \, 0 400 10;
#X obj 649 287 bang;
#X obj 12 28 r \$0-<;
#X obj 254 30 r \$0->;
#X obj 457 35 r \$0-";
#X obj 36 281 r \$0--;
#X obj 174 273 r \$0-+;
#X obj 312 267 r \$0-/;
#X obj 495 274 r \$0-backslash;
#X obj 660 254 r \$0-&;
#X connect 0 0 61 0;
#X connect 1 0 0 0;
#X connect 2 0 61 0;
#X connect 3 0 2 0;
#X connect 4 0 7 0;
#X connect 4 0 7 1;
#X connect 5 0 1 0;
#X connect 6 0 3 0;
#X connect 8 0 5 0;
#X connect 8 0 6 0;
#X connect 8 0 10 0;
#X connect 9 0 4 1;
#X connect 10 0 9 0;
#X connect 11 0 62 0;
#X connect 12 0 11 0;
#X connect 13 0 62 0;
#X connect 14 0 13 0;
#X connect 15 0 16 0;
#X connect 15 0 16 1;
#X connect 17 0 20 0;
#X connect 17 0 21 0;
#X connect 17 0 19 0;
#X connect 18 0 15 1;
#X connect 19 0 18 0;
#X connect 20 0 12 0;
#X connect 21 0 14 0;
#X connect 22 0 63 0;
#X connect 23 0 22 0;
#X connect 24 0 25 0;
#X connect 24 0 25 1;
#X connect 26 0 24 1;
#X connect 27 0 23 0;
#X connect 28 0 29 0;
#X connect 28 0 27 0;
#X connect 29 0 26 0;
#X connect 30 0 64 0;
#X connect 31 0 32 0;
#X connect 31 0 32 1;
#X connect 33 0 31 1;
#X connect 34 0 66 0;
#X connect 35 0 34 0;
#X connect 36 0 37 0;
#X connect 36 0 37 1;
#X connect 38 0 36 1;
#X connect 39 0 38 0;
#X connect 40 0 35 0;
#X connect 41 0 67 0;
#X connect 42 0 41 0;
#X connect 43 0 44 0;
#X connect 43 0 44 1;
#X connect 45 0 43 1;
#X connect 46 0 45 0;
#X connect 47 0 42 0;
#X connect 49 0 50 1;
#X connect 50 0 48 0;
#X connect 50 0 48 1;
#X connect 51 0 49 0;
#X connect 52 0 53 0;
#X connect 53 0 69 0;
#X connect 54 0 68 0;
#X connect 55 0 54 0;
#X connect 56 0 57 0;
#X connect 56 0 57 1;
#X connect 58 0 56 1;
#X connect 59 0 58 0;
#X connect 60 0 55 0;
#X connect 61 0 4 0;
#X connect 62 0 15 0;
#X connect 63 0 24 0;
#X connect 64 0 31 0;
#X connect 65 0 30 0;
#X connect 66 0 36 0;
#X connect 67 0 43 0;
#X connect 68 0 56 0;
#X connect 69 0 50 0;
#X connect 70 0 33 0;
#X connect 71 0 52 0;
#X connect 72 0 5 0;
#X connect 72 0 6 0;
#X connect 72 0 10 0;
#X connect 73 0 20 0;
#X connect 73 0 21 0;
#X connect 73 0 19 0;
#X connect 74 0 28 0;
#X connect 74 0 29 0;
#X connect 75 0 65 0;
#X connect 75 0 70 0;
#X connect 76 0 40 0;
#X connect 76 0 39 0;
#X connect 77 0 47 0;
#X connect 77 0 46 0;
#X connect 78 0 60 0;
#X connect 78 0 59 0;
#X connect 79 0 51 0;
#X connect 79 0 71 0;
#X restore 482 23 pd punctuation2;
#X obj 72 46 print;
#N canvas 1 88 733 336 punctuation-route 0;
#X obj 57 27 inlet;
#X obj 57 52 route 0 1 2 3 4 5 6 7 8 9 10 11 12 13 14 15 16 17 18 19
20;
#X obj 57 78 s \$0-stop;
#X obj 74 101 s \$0-comma;
#X obj 89 129 s \$0-";
#X obj 106 153 s \$0-exclaim;
#X obj 123 182 s \$0-question;
#X obj 139 206 s \$0-<;
#X obj 155 228 s \$0->;
#X obj 172 255 s \$0-<;
#X obj 188 278 s \$0->;
#X obj 204 72 s \$0-<;
#X obj 221 96 s \$0->;
#X obj 237 118 s \$0-hash;
#X obj 255 141 s \$0-=;
#X obj 271 165 s \$0-_;
#X obj 287 73 s \$0-<;
#X obj 303 96 s \$0->;
#X obj 319 118 s \$0-";
#X obj 336 142 s \$0--;
#X obj 385 124 s \$0-backslash;
#X obj 369 98 s \$0-/;
#X obj 352 73 s \$0-+;
#X connect 0 0 1 0;
#X connect 1 0 2 0;
#X connect 1 1 3 0;
#X connect 1 2 4 0;
#X connect 1 3 5 0;
#X connect 1 4 6 0;
#X connect 1 5 7 0;
#X connect 1 6 8 0;
#X connect 1 7 9 0;
#X connect 1 8 10 0;
#X connect 1 9 11 0;
#X connect 1 10 12 0;
#X connect 1 11 13 0;
#X connect 1 12 14 0;
#X connect 1 13 15 0;
#X connect 1 14 16 0;
#X connect 1 15 17 0;
#X connect 1 16 18 0;
#X connect 1 17 19 0;
#X connect 1 18 22 0;
#X connect 1 19 21 0;
#X connect 1 20 20 0;
#X restore 120 86 pd punctuation-route;
#X text 243 1 Text to music synthesis patch;
#X text 238 18 Andrew James Faraday - May 2012;
#X text 231 182 Note: this patch must be open for the ruby text to
music scripts to work.;
#X obj 34 136 s \$0-let;
#X obj 77 110 s \$0-num;
#X obj 34 65 route letter num punct;
#X connect 0 0 7 0;
#X connect 0 0 14 0;
#X connect 14 0 12 0;
#X connect 14 1 13 0;
#X connect 14 2 8 0;
